<svg width="54" height="33" viewBox="0 0 54 33" fill="none" xmlns="http://www.w3.org/2000/svg">
<path d="M7.14706 26.75C6.93645 26.75 6.73446 26.8158 6.58553 26.9331C6.43661 27.0503 6.35294 27.2092 6.35294 27.375C6.35294 27.5408 6.43661 27.6997 6.58553 27.8169C6.73446 27.9342 6.93645 28 7.14706 28H9.52941V32.375C9.52941 32.5408 9.61308 32.6997 9.762 32.8169C9.91093 32.9342 10.1129 33 10.3235 33C10.5341 33 10.7361 32.9342 10.8851 32.8169C11.034 32.6997 11.1176 32.5408 11.1176 32.375V28H20.6471V32.375C20.6471 32.5408 20.7307 32.6997 20.8797 32.8169C21.0286 32.9342 21.2306 33 21.4412 33C21.6518 33 21.8538 32.9342 22.0027 32.8169C22.1516 32.6997 22.2353 32.5408 22.2353 32.375V28H31.7647V32.375C31.7647 32.5408 31.8484 32.6997 31.9973 32.8169C32.1462 32.9342 32.3482 33 32.5588 33C32.7694 33 32.9714 32.9342 33.1203 32.8169C33.2693 32.6997 33.3529 32.5408 33.3529 32.375V28H42.8824V32.375C42.8824 32.5408 42.966 32.6997 43.1149 32.8169C43.2639 32.9342 43.4659 33 43.6765 33C43.8871 33 44.0891 32.9342 44.238 32.8169C44.3869 32.6997 44.4706 32.5408 44.4706 32.375V28H46.8529C47.0636 28 47.2655 27.9342 47.4145 27.8169C47.5634 27.6997 47.6471 27.5408 47.6471 27.375C47.6471 27.2092 47.5634 27.0503 47.4145 26.9331C47.2655 26.8158 47.0636 26.75 46.8529 26.75H44.4706V20.5H46.8529C47.0636 20.5 47.2655 20.4342 47.4145 20.3169C47.5634 20.1997 47.6471 20.0408 47.6471 19.875C47.6471 19.7092 47.5634 19.5503 47.4145 19.4331C47.2655 19.3158 47.0636 19.25 46.8529 19.25H44.4706V13.625C44.4706 13.4592 44.3869 13.3003 44.238 13.1831C44.0891 13.0658 43.8871 13 43.6765 13C43.4659 13 43.2639 13.0658 43.1149 13.1831C42.966 13.3003 42.8824 13.4592 42.8824 13.625V19.25H33.3529V13.625C33.3529 13.4592 33.2693 13.3003 33.1203 13.1831C32.9714 13.0658 32.7694 13 32.5588 13C32.3482 13 32.1462 13.0658 31.9973 13.1831C31.8484 13.3003 31.7647 13.4592 31.7647 13.625V19.25H22.2353V13.625C22.2353 13.4592 22.1516 13.3003 22.0027 13.1831C21.8538 13.0658 21.6518 13 21.4412 13C21.2306 13 21.0286 13.0658 20.8797 13.1831C20.7307 13.3003 20.6471 13.4592 20.6471 13.625V19.25H11.1176V13.625C11.1176 13.4592 11.034 13.3003 10.8851 13.1831C10.7361 13.0658 10.5341 13 10.3235 13C10.1129 13 9.91093 13.0658 9.762 13.1831C9.61308 13.3003 9.52941 13.4592 9.52941 13.625V19.25H7.14706C6.93645 19.25 6.73446 19.3158 6.58553 19.4331C6.43661 19.5503 6.35294 19.7092 6.35294 19.875C6.35294 20.0408 6.43661 20.1997 6.58553 20.3169C6.73446 20.4342 6.93645 20.5 7.14706 20.5H9.52941V26.75H7.14706ZM42.8824 20.5V26.75H33.3529V20.5H42.8824ZM31.7647 20.5V26.75H22.2353V20.5H31.7647ZM11.1176 20.5H20.6471V26.75H11.1176V20.5ZM45.2647 1.75H52.0147C52.1529 1.75 52.4118 1.75 52.4118 2.375V8H1.58824V2.375C1.58824 2.20924 1.6719 2.05027 1.82083 1.93306C1.96975 1.81585 2.17174 1.75 2.38235 1.75H8.73529C8.94591 1.75 9.14789 1.68415 9.29682 1.56694C9.44575 1.44973 9.52941 1.29076 9.52941 1.125C9.52941 0.95924 9.44575 0.800269 9.29682 0.683058C9.14789 0.565848 8.94591 0.5 8.73529 0.5H2.38235C1.06888 0.5 0 1.34125 0 2.375V8.625C0 8.79076 0.0836657 8.94973 0.232592 9.06694C0.381518 9.18415 0.583505 9.25 0.794118 9.25H53.2059C53.4165 9.25 53.6185 9.18415 53.7674 9.06694C53.9163 8.94973 54 8.79076 54 8.625V2.375C54 0.9925 52.974 0.5 52.0147 0.5H45.2647C45.0541 0.5 44.8521 0.565848 44.7032 0.683058C44.5543 0.800269 44.4706 0.95924 44.4706 1.125C44.4706 1.29076 44.5543 1.44973 44.7032 1.56694C44.8521 1.68415 45.0541 1.75 45.2647 1.75Z" fill="#37425F"/>
</svg>
